<svg enable-background="new 0 0 128 128" id="Layer_1"
            version="1.1" viewBox="0 0 128 128" xml:space="preserve" xmlns="http://www.w3.org/2000/svg"
            xmlns:xlink="http://www.w3.org/1999/xlink">
            <g>
                <g>
                    <path
                        d="M103.9,67.2c0,26.1-21.2,47.3-47.3,47.3c-26.1,0-47.3-21.2-47.3-47.3C9.3,41.2,30.5,20,56.6,20    C82.7,20,103.9,41.2,103.9,67.2z"
                        fill="#AAAAAA00" />
                    <path
                        d="M56.6,116C29.7,116,7.8,94.1,7.8,67.2c0-26.9,21.9-48.8,48.8-48.8c26.9,0,48.8,21.9,48.8,48.8    C105.4,94.1,83.5,116,56.6,116z M56.6,21.5c-25.2,0-45.8,20.5-45.8,45.8c0,25.2,20.5,45.8,45.8,45.8c25.2,0,45.8-20.5,45.8-45.8    C102.4,42,81.9,21.5,56.6,21.5z"
                        fill="#FFF" />
                </g>
                <g>
                    <polyline fill="#aaaaaa00" points="116,14.5 124.5,14.5 124.5,22   " />
                    <path
                        d="M124.5,23.5c-0.8,0-1.5-0.7-1.5-1.5v-6h-7c-0.8,0-1.5-0.7-1.5-1.5s0.7-1.5,1.5-1.5h8.5    c0.8,0,1.5,0.7,1.5,1.5V22C126,22.8,125.3,23.5,124.5,23.5z"
                        fill="#aaaaaa00" />
                </g>
                <g>
                    <polyline fill="#AAAAAA" points="5,101.8 40.3,66.4 51.7,77.8 68,61.6 73.7,67.2 97.2,43.8   " />
                    <path
                        d="M5,103.3c-0.4,0-0.8-0.1-1.1-0.4c-0.6-0.6-0.6-1.5,0-2.1l35.3-35.3c0.3-0.3,0.7-0.4,1.1-0.4l0,0    c0.4,0,0.8,0.2,1.1,0.4l10.3,10.4L67,60.5c0.6-0.6,1.5-0.6,2.1,0l4.6,4.6l22.3-22.3c0.6-0.6,1.5-0.6,2.1,0s0.6,1.5,0,2.1    L74.8,68.3c-0.6,0.6-1.5,0.6-2.1,0L68,63.7L52.8,78.9c-0.6,0.6-1.5,0.6-2.1,0L40.3,68.5L6.1,102.8C5.8,103.1,5.4,103.3,5,103.3z"
                        fill="#FFF" />
                </g>
                <g>
                    <polygon fill="#FFFFFF" points="43.5,68 40,70.2 36.5,68 36.5,63.7 40,61.5 43.5,63.7   " />
                    <path
                        d="M40,71.7c-0.3,0-0.5-0.1-0.8-0.2l-3.5-2.2C35.3,69,35,68.5,35,68v-4.4c0-0.5,0.3-1,0.7-1.3l3.5-2.2    c0.5-0.3,1.1-0.3,1.6,0l3.5,2.2c0.4,0.3,0.7,0.8,0.7,1.3V68c0,0.5-0.3,1-0.7,1.3l-3.5,2.2C40.6,71.6,40.3,71.7,40,71.7z M38,67.2    l2,1.2l2-1.2v-2.7l-2-1.2l-2,1.2V67.2z"
                        fill="#FFF" />
                </g>
                <g>
                    <polygon fill="#FFFFFF" points="55.5,80.2 51.5,82.4 47.5,80.2 47.5,75.9 51.5,73.7 55.5,75.9   " />
                    <path
                        d="M51.5,83.9c-0.2,0-0.5-0.1-0.7-0.2l-4-2.2c-0.5-0.3-0.8-0.8-0.8-1.3v-4.4c0-0.6,0.3-1.1,0.8-1.3l4-2.2    c0.4-0.2,1-0.2,1.4,0l4,2.2c0.5,0.3,0.8,0.8,0.8,1.3v4.4c0,0.5-0.3,1.1-0.8,1.3l-4,2.2C52,83.9,51.8,83.9,51.5,83.9z M49,79.4    l2.5,1.4l2.5-1.4v-2.6l-2.5-1.4L49,76.8V79.4z"
                        fill="#FFF" />
                </g>
                <g>
                    <polygon fill="#FFFFFF" points="71.5,64.2 67.5,66.4 63.5,64.2 63.5,59.9 67.5,57.7 71.5,59.9   " />
                    <path
                        d="M67.5,67.9c-0.2,0-0.5-0.1-0.7-0.2l-4-2.2c-0.5-0.3-0.8-0.8-0.8-1.3v-4.4c0-0.6,0.3-1.1,0.8-1.3l4-2.2    c0.4-0.2,1-0.2,1.4,0l4,2.2c0.5,0.3,0.8,0.8,0.8,1.3v4.4c0,0.5-0.3,1.1-0.8,1.3l-4,2.2C68,67.8,67.7,67.9,67.5,67.9z M65,63.3    l2.5,1.4l2.5-1.4v-2.6l-2.5-1.4L65,60.8V63.3z"
                        fill="#FFF" />
                </g>
                <g>
                    <polygon fill="#FFFFFF" points="77.5,70.5 74,72.7 70.5,70.5 70.5,66.1 74,63.9 77.5,66.1   " />
                    <path
                        d="M74,74.2c-0.3,0-0.6-0.1-0.8-0.2l-3.5-2.2C69.3,71.5,69,71,69,70.5v-4.4c0-0.5,0.3-1,0.7-1.3l3.5-2.2    c0.5-0.3,1.1-0.3,1.6,0l3.5,2.2c0.4,0.3,0.7,0.8,0.7,1.3v4.4c0,0.5-0.3,1-0.7,1.3l-3.5,2.2C74.5,74.1,74.3,74.2,74,74.2z M72,69.6    l2,1.2l2-1.2V67l-2-1.2L72,67V69.6z"
                        fill="#FFF" />
                </g>
                <g>
                    <g>
                        <path
                            d="M116.7,22.9c-0.6-0.6-0.6-1.5,0-2.1c0.6-0.6,1.5-0.6,2.1,0c0.6,0.6,0.6,1.5,0,2.1     C118.3,23.5,117.3,23.5,116.7,22.9z"
                            fill="#FFF" />
                        <path
                            d="M117.8,23.9c-0.5,0-1-0.2-1.4-0.6c-0.4-0.4-0.6-0.9-0.6-1.4c0-0.5,0.2-1,0.6-1.4c0.8-0.7,2.1-0.7,2.8,0     c0.4,0.4,0.6,0.9,0.6,1.4c0,0.5-0.2,1-0.6,1.4C118.8,23.7,118.3,23.9,117.8,23.9z M117.8,20.9c-0.3,0-0.5,0.1-0.7,0.3     c-0.2,0.2-0.3,0.4-0.3,0.7c0,0.3,0.1,0.5,0.3,0.7c0.4,0.4,1,0.4,1.4,0c0.2-0.2,0.3-0.4,0.3-0.7c0-0.3-0.1-0.5-0.3-0.7     C118.3,21,118,20.9,117.8,20.9z"
                            fill="#FFF" />
                    </g>
                    <g>
                        <path
                            d="M109.3,30.3c-0.6-0.6-0.6-1.5,0-2.1c0.6-0.6,1.5-0.6,2.1,0c0.6,0.6,0.6,1.5,0,2.1     C110.9,30.9,109.9,30.9,109.3,30.3z"
                            fill="#FFF" />
                        <path
                            d="M110.4,31.3c-0.5,0-1-0.2-1.4-0.6c-0.4-0.4-0.6-0.9-0.6-1.4c0-0.5,0.2-1,0.6-1.4c0.8-0.7,2.1-0.7,2.8,0     c0.8,0.8,0.8,2.1,0,2.8C111.4,31.1,110.9,31.3,110.4,31.3z M110.4,28.3c-0.3,0-0.5,0.1-0.7,0.3c-0.2,0.2-0.3,0.4-0.3,0.7     c0,0.3,0.1,0.5,0.3,0.7c0.4,0.4,1,0.4,1.4,0c0.4-0.4,0.4-1,0-1.4C110.9,28.4,110.7,28.3,110.4,28.3z"
                            fill="#FFF" />
                    </g>
                    <g>
                        <path
                            d="M101.9,37.7c-0.6-0.6-0.6-1.5,0-2.1c0.6-0.6,1.5-0.6,2.1,0c0.6,0.6,0.6,1.5,0,2.1     C103.5,38.3,102.5,38.3,101.9,37.7z"
                            fill="#FFF" />
                        <path
                            d="M103,38.7c-0.5,0-1-0.2-1.4-0.6c-0.8-0.8-0.8-2,0-2.8c0.8-0.8,2.1-0.7,2.8,0c0.4,0.4,0.6,0.9,0.6,1.4     c0,0.5-0.2,1-0.6,1.4C104,38.4,103.5,38.7,103,38.7z M103,35.7c-0.3,0-0.5,0.1-0.7,0.3c-0.4,0.4-0.4,1,0,1.4c0.4,0.4,1,0.4,1.4,0     c0.2-0.2,0.3-0.4,0.3-0.7c0-0.3-0.1-0.5-0.3-0.7C103.5,35.8,103.3,35.7,103,35.7z"
                            fill="#FFF" />
                    </g>
                </g>
            </g>
        </svg>